<mxfile host="65bd71144e">
    <diagram id="cAeEjwDc8Da46WBYSmde" name="PÃ¡gina-1">
        <mxGraphModel dx="576" dy="432" grid="1" gridSize="10" guides="1" tooltips="1" connect="1" arrows="1" fold="1" page="1" pageScale="1" pageWidth="827" pageHeight="1169" math="0" shadow="0">
            <root>
                <mxCell id="0"/>
                <mxCell id="1" parent="0"/>
                <mxCell id="2" value="" style="rounded=0;whiteSpace=wrap;html=1;" vertex="1" parent="1">
                    <mxGeometry x="160" y="80" width="140" height="220" as="geometry"/>
                </mxCell>
                <mxCell id="3" value="" style="rounded=0;whiteSpace=wrap;html=1;" vertex="1" parent="1">
                    <mxGeometry x="160" y="80" width="140" height="40" as="geometry"/>
                </mxCell>
                <mxCell id="19" style="edgeStyle=none;html=1;exitX=1;exitY=0.5;exitDx=0;exitDy=0;endArrow=diamondThin;endFill=1;" edge="1" parent="1" source="4">
                    <mxGeometry relative="1" as="geometry">
                        <mxPoint x="430" y="200" as="targetPoint"/>
                    </mxGeometry>
                </mxCell>
                <mxCell id="4" value="" style="rounded=0;whiteSpace=wrap;html=1;" vertex="1" parent="1">
                    <mxGeometry x="160" y="120" width="140" height="160" as="geometry"/>
                </mxCell>
                <mxCell id="7" value="agenda" style="text;strokeColor=none;fillColor=none;html=1;fontSize=24;fontStyle=1;verticalAlign=middle;align=center;" vertex="1" parent="1">
                    <mxGeometry x="180" y="80" width="100" height="40" as="geometry"/>
                </mxCell>
                <mxCell id="8" value="-nome:string" style="text;html=1;strokeColor=none;fillColor=none;align=center;verticalAlign=middle;whiteSpace=wrap;rounded=0;" vertex="1" parent="1">
                    <mxGeometry x="160" y="120" width="70" height="30" as="geometry"/>
                </mxCell>
                <mxCell id="9" value="-telefone/celular:number" style="text;html=1;strokeColor=none;fillColor=none;align=center;verticalAlign=middle;whiteSpace=wrap;rounded=0;" vertex="1" parent="1">
                    <mxGeometry x="158" y="134" width="140" height="30" as="geometry"/>
                </mxCell>
                <mxCell id="10" value="-img:string" style="text;html=1;strokeColor=none;fillColor=none;align=center;verticalAlign=middle;whiteSpace=wrap;rounded=0;" vertex="1" parent="1">
                    <mxGeometry x="160" y="148" width="60" height="30" as="geometry"/>
                </mxCell>
                <mxCell id="11" value="-data/idade:number" style="text;html=1;strokeColor=none;fillColor=none;align=center;verticalAlign=middle;whiteSpace=wrap;rounded=0;" vertex="1" parent="1">
                    <mxGeometry x="161" y="162" width="110" height="30" as="geometry"/>
                </mxCell>
                <mxCell id="12" value="-signo:string" style="text;html=1;strokeColor=none;fillColor=none;align=center;verticalAlign=middle;whiteSpace=wrap;rounded=0;" vertex="1" parent="1">
                    <mxGeometry x="157" y="176" width="80" height="30" as="geometry"/>
                </mxCell>
                <mxCell id="13" value="-email:string" style="text;html=1;strokeColor=none;fillColor=none;align=center;verticalAlign=middle;whiteSpace=wrap;rounded=0;" vertex="1" parent="1">
                    <mxGeometry x="139" y="190" width="120" height="30" as="geometry"/>
                </mxCell>
                <mxCell id="14" value="-cep:number" style="text;html=1;strokeColor=none;fillColor=none;align=center;verticalAlign=middle;whiteSpace=wrap;rounded=0;" vertex="1" parent="1">
                    <mxGeometry x="150" y="203" width="100" height="30" as="geometry"/>
                </mxCell>
                <mxCell id="15" value="-cidade:string" style="text;html=1;strokeColor=none;fillColor=none;align=center;verticalAlign=middle;whiteSpace=wrap;rounded=0;" vertex="1" parent="1">
                    <mxGeometry x="157" y="218" width="90" height="30" as="geometry"/>
                </mxCell>
                <mxCell id="16" value="-instagram:string" style="text;html=1;strokeColor=none;fillColor=none;align=center;verticalAlign=middle;whiteSpace=wrap;rounded=0;" vertex="1" parent="1">
                    <mxGeometry x="156" y="230" width="110" height="30" as="geometry"/>
                </mxCell>
                <mxCell id="17" value="-github:string" style="text;html=1;strokeColor=none;fillColor=none;align=center;verticalAlign=middle;whiteSpace=wrap;rounded=0;" vertex="1" parent="1">
                    <mxGeometry x="161" y="241" width="80" height="30" as="geometry"/>
                </mxCell>
                <mxCell id="18" value="-id:number" style="text;html=1;strokeColor=none;fillColor=none;align=center;verticalAlign=middle;whiteSpace=wrap;rounded=0;" vertex="1" parent="1">
                    <mxGeometry x="168" y="256" width="60" height="30" as="geometry"/>
                </mxCell>
                <mxCell id="26" value="+addCadastro()" style="text;html=1;strokeColor=none;fillColor=none;align=center;verticalAlign=middle;whiteSpace=wrap;rounded=0;" vertex="1" parent="1">
                    <mxGeometry x="420" y="160" width="140" height="30" as="geometry"/>
                </mxCell>
                <mxCell id="20" value="" style="rounded=0;whiteSpace=wrap;html=1;container=0;" vertex="1" parent="1">
                    <mxGeometry x="440" y="145" width="160" height="110" as="geometry"/>
                </mxCell>
                <mxCell id="21" value="" style="rounded=0;whiteSpace=wrap;html=1;container=0;" vertex="1" parent="1">
                    <mxGeometry x="440" y="145" width="160" height="40" as="geometry"/>
                </mxCell>
                <mxCell id="22" value="" style="rounded=0;whiteSpace=wrap;html=1;container=0;" vertex="1" parent="1">
                    <mxGeometry x="440" y="185" width="160" height="40" as="geometry"/>
                </mxCell>
                <mxCell id="24" value="AgendaList" style="text;strokeColor=none;fillColor=none;html=1;fontSize=24;fontStyle=1;verticalAlign=middle;align=center;container=0;" vertex="1" parent="1">
                    <mxGeometry x="470" y="145" width="100" height="40" as="geometry"/>
                </mxCell>
                <mxCell id="25" value="-cadastroArray:array" style="text;html=1;strokeColor=none;fillColor=none;align=center;verticalAlign=middle;whiteSpace=wrap;rounded=0;container=0;" vertex="1" parent="1">
                    <mxGeometry x="430" y="181" width="147" height="34" as="geometry"/>
                </mxCell>
                <mxCell id="29" value="+addCadastro()" style="text;html=1;strokeColor=none;fillColor=none;align=center;verticalAlign=middle;whiteSpace=wrap;rounded=0;container=0;" vertex="1" parent="1">
                    <mxGeometry x="460" y="225" width="60" height="30" as="geometry"/>
                </mxCell>
                <mxCell id="33" value="0 *" style="text;html=1;strokeColor=none;fillColor=none;align=center;verticalAlign=middle;whiteSpace=wrap;rounded=0;" vertex="1" parent="1">
                    <mxGeometry x="280" y="200" width="60" height="30" as="geometry"/>
                </mxCell>
                <mxCell id="34" value="1" style="text;html=1;strokeColor=none;fillColor=none;align=center;verticalAlign=middle;whiteSpace=wrap;rounded=0;" vertex="1" parent="1">
                    <mxGeometry x="390" y="200" width="60" height="30" as="geometry"/>
                </mxCell>
            </root>
        </mxGraphModel>
    </diagram>
</mxfile>